<svg xmlns="http://www.w3.org/2000/svg" xmlns:xlink="http://www.w3.org/1999/xlink" width="500" zoomAndPan="magnify" viewBox="0 0 375 374.999991" height="500" preserveAspectRatio="xMidYMid meet" version="1.0"><defs><g/><clipPath id="2661fb298e"><path d="M 107 145 L 181 145 L 181 218 L 107 218 Z M 107 145 " clip-rule="nonzero"/></clipPath><clipPath id="9ba207b756"><path d="M 106.359375 147.539062 L 179.492188 144.445312 L 182.523438 216.175781 L 109.390625 219.265625 Z M 106.359375 147.539062 " clip-rule="nonzero"/></clipPath><clipPath id="7a8542ea8f"><path d="M 142.867188 145.996094 C 122.707031 146.847656 107.039062 163.59375 107.875 183.402344 C 108.714844 203.210938 125.738281 218.574219 145.898438 217.722656 C 166.0625 216.871094 181.730469 200.125 180.890625 180.316406 C 180.054688 160.507812 163.03125 145.144531 142.867188 145.996094 Z M 142.867188 145.996094 " clip-rule="nonzero"/></clipPath><clipPath id="a451336219"><path d="M 0 0 L 74 0 L 74 73 L 0 73 Z M 0 0 " clip-rule="nonzero"/></clipPath><clipPath id="704f420324"><path d="M -0.640625 2.539062 L 72.492188 -0.554688 L 75.523438 71.175781 L 2.390625 74.265625 Z M -0.640625 2.539062 " clip-rule="nonzero"/></clipPath><clipPath id="185af89375"><path d="M 35.867188 0.996094 C 15.707031 1.847656 0.0390625 18.59375 0.875 38.402344 C 1.714844 58.210938 18.738281 73.574219 38.898438 72.722656 C 59.0625 71.871094 74.730469 55.125 73.890625 35.316406 C 73.054688 15.507812 56.03125 0.144531 35.867188 0.996094 Z M 35.867188 0.996094 " clip-rule="nonzero"/></clipPath><clipPath id="e1aa5739f0"><rect x="0" width="74" y="0" height="73"/></clipPath><clipPath id="2bad2378bf"><path d="M 112 156 L 156 156 L 156 203 L 112 203 Z M 112 156 " clip-rule="nonzero"/></clipPath><clipPath id="bdaaf64c9a"><path d="M 111.769531 157.464844 L 166.472656 155.15625 L 168.65625 206.859375 L 113.957031 209.171875 Z M 111.769531 157.464844 " clip-rule="nonzero"/></clipPath><clipPath id="1e55052cff"><path d="M 111.769531 157.464844 L 166.472656 155.15625 L 168.65625 206.859375 L 113.957031 209.171875 Z M 111.769531 157.464844 " clip-rule="nonzero"/></clipPath><clipPath id="5cf7c16e47"><path d="M 111.769531 157.464844 L 166.472656 155.15625 L 168.65625 206.859375 L 113.957031 209.171875 Z M 111.769531 157.464844 " clip-rule="nonzero"/></clipPath><clipPath id="1219d5b8ff"><path d="M 148 185 L 169 185 L 169 208 L 148 208 Z M 148 185 " clip-rule="nonzero"/></clipPath><clipPath id="9d15964431"><path d="M 111.769531 157.464844 L 166.472656 155.15625 L 168.65625 206.859375 L 113.957031 209.171875 Z M 111.769531 157.464844 " clip-rule="nonzero"/></clipPath><clipPath id="a50657d761"><path d="M 111.769531 157.464844 L 166.472656 155.15625 L 168.65625 206.859375 L 113.957031 209.171875 Z M 111.769531 157.464844 " clip-rule="nonzero"/></clipPath><clipPath id="c55305dcfd"><path d="M 111.769531 157.464844 L 166.472656 155.15625 L 168.65625 206.859375 L 113.957031 209.171875 Z M 111.769531 157.464844 " clip-rule="nonzero"/></clipPath><clipPath id="3aee3a2dbe"><path d="M 147.90625 186.1875 L 167.730469 185.351562 L 168.640625 206.859375 L 148.816406 207.695312 Z M 147.90625 186.1875 " clip-rule="nonzero"/></clipPath><clipPath id="3c32bee212"><path d="M 145 155 L 160 155 L 160 171 L 145 171 Z M 145 155 " clip-rule="nonzero"/></clipPath><clipPath id="063feca5a1"><path d="M 111.769531 157.464844 L 166.472656 155.15625 L 168.65625 206.859375 L 113.957031 209.171875 Z M 111.769531 157.464844 " clip-rule="nonzero"/></clipPath><clipPath id="0155d41887"><path d="M 111.769531 157.464844 L 166.472656 155.15625 L 168.65625 206.859375 L 113.957031 209.171875 Z M 111.769531 157.464844 " clip-rule="nonzero"/></clipPath><clipPath id="0d0dd872b2"><path d="M 111.769531 157.464844 L 166.472656 155.15625 L 168.65625 206.859375 L 113.957031 209.171875 Z M 111.769531 157.464844 " clip-rule="nonzero"/></clipPath><clipPath id="5ce7ffc032"><path d="M 106 144 L 182 144 L 182 220 L 106 220 Z M 106 144 " clip-rule="nonzero"/></clipPath><clipPath id="465e123f55"><path d="M 104.8125 146.285156 L 179.742188 143.117188 L 182.910156 218.050781 L 107.976562 221.21875 Z M 104.8125 146.285156 " clip-rule="nonzero"/></clipPath><clipPath id="cbb5b0762b"><path d="M 104.8125 146.285156 L 179.742188 143.117188 L 182.910156 218.050781 L 107.976562 221.21875 Z M 104.8125 146.285156 " clip-rule="nonzero"/></clipPath><clipPath id="03ebf924d4"><path d="M 104.8125 146.285156 L 179.742188 143.117188 L 182.910156 218.050781 L 107.976562 221.21875 Z M 104.8125 146.285156 " clip-rule="nonzero"/></clipPath><clipPath id="f84751558e"><path d="M 0.199219 91 L 1 91 L 1 92 L 0.199219 92 Z M 0.199219 91 " clip-rule="nonzero"/></clipPath><clipPath id="29bf72e43e"><rect x="0" width="360" y="0" height="118"/></clipPath></defs><g clip-path="url(#2661fb298e)"><g clip-path="url(#9ba207b756)"><g clip-path="url(#7a8542ea8f)"><g transform="matrix(1, 0, 0, 1, 107, 145)"><g clip-path="url(#e1aa5739f0)"><g clip-path="url(#a451336219)"><g clip-path="url(#704f420324)"><g clip-path="url(#185af89375)"><path fill="#fc7e15" d="M -0.640625 2.539062 L 72.492188 -0.554688 L 75.523438 71.175781 L 2.390625 74.265625 Z M -0.640625 2.539062 " fill-opacity="1" fill-rule="nonzero"/></g></g></g></g></g></g></g></g><g clip-path="url(#2bad2378bf)"><g clip-path="url(#bdaaf64c9a)"><g clip-path="url(#1e55052cff)"><g clip-path="url(#5cf7c16e47)"><path fill="#000000" d="M 135.007812 202.496094 C 132.367188 190.3125 125.441406 182.710938 112.761719 180.511719 C 125.074219 177.105469 131.554688 169.160156 132.945312 156.570312 C 135.671875 168.65625 142.417969 176.441406 155.039062 178.722656 C 142.871094 182.140625 136.484375 190.050781 135.007812 202.496094 " fill-opacity="1" fill-rule="nonzero"/></g></g></g></g><g clip-path="url(#1219d5b8ff)"><g clip-path="url(#9d15964431)"><g clip-path="url(#a50657d761)"><g clip-path="url(#c55305dcfd)"><g clip-path="url(#3aee3a2dbe)"><path fill="#000000" d="M 158.8125 207.273438 C 157.578125 201.570312 154.335938 198.015625 148.40625 196.988281 C 154.167969 195.394531 157.199219 191.675781 157.851562 185.785156 C 159.125 191.441406 162.28125 195.082031 168.1875 196.152344 C 162.492188 197.75 159.503906 201.449219 158.8125 207.273438 " fill-opacity="1" fill-rule="nonzero"/></g></g></g></g></g><g clip-path="url(#3c32bee212)"><g clip-path="url(#063feca5a1)"><g clip-path="url(#0155d41887)"><g clip-path="url(#0d0dd872b2)"><path fill="#000000" d="M 152.867188 170.453125 C 152.023438 166.554688 149.804688 164.121094 145.75 163.417969 C 149.6875 162.328125 151.761719 159.785156 152.207031 155.757812 C 153.082031 159.625 155.238281 162.117188 159.277344 162.847656 C 155.382812 163.941406 153.339844 166.472656 152.867188 170.453125 " fill-opacity="1" fill-rule="nonzero"/></g></g></g></g><g clip-path="url(#5ce7ffc032)"><g clip-path="url(#465e123f55)"><g clip-path="url(#cbb5b0762b)"><g clip-path="url(#03ebf924d4)"><path fill="#000000" d="M 145.445312 219.632812 C 124.746094 220.507812 107.265625 204.335938 106.394531 183.75 C 105.523438 163.167969 121.578125 145.574219 142.277344 144.703125 C 162.976562 143.828125 180.453125 159.886719 181.328125 180.585938 C 182.203125 201.285156 166.027344 218.765625 145.445312 219.632812 Z M 142.375 147.015625 C 122.949219 147.835938 107.886719 164.226562 108.707031 183.652344 C 109.527344 203.082031 125.917969 218.140625 145.347656 217.320312 C 164.773438 216.5 179.835938 200.109375 179.015625 180.683594 C 178.195312 161.253906 161.6875 146.199219 142.375 147.015625 Z M 142.375 147.015625 " fill-opacity="1" fill-rule="nonzero"/></g></g></g></g><g transform="matrix(1, 0, 0, 1, 7, 128)"><g clip-path="url(#29bf72e43e)"><g clip-path="url(#f84751558e)"><g fill="#131313" fill-opacity="1"><g transform="translate(0.58787, 91.481172)"><g/></g></g></g><g fill="#000000" fill-opacity="1"><g transform="translate(9.547508, 91.481172)"><g><path d="M 21.296875 -52.328125 L 31.609375 -53.296875 C 31.609375 -55.304688 31.425781 -57.425781 31.0625 -59.65625 C 30.707031 -61.894531 30.015625 -63.988281 28.984375 -65.9375 C 27.941406 -67.8125 26.460938 -69.347656 24.546875 -70.546875 C 22.640625 -71.753906 20.097656 -72.320312 16.921875 -72.25 C 14.453125 -72.1875 12.34375 -71.648438 10.59375 -70.640625 C 8.84375 -69.640625 7.421875 -68.363281 6.328125 -66.8125 C 5.222656 -65.1875 4.425781 -63.382812 3.9375 -61.40625 C 3.445312 -59.4375 3.203125 -57.476562 3.203125 -55.53125 C 3.203125 -53.582031 3.492188 -51.671875 4.078125 -49.796875 C 5.117188 -46.097656 6.835938 -42.398438 9.234375 -38.703125 C 10.398438 -36.890625 11.535156 -35.171875 12.640625 -33.546875 C 13.742188 -31.929688 14.816406 -30.378906 15.859375 -28.890625 C 16.367188 -28.171875 16.832031 -27.453125 17.25 -26.734375 C 17.675781 -26.023438 18.117188 -25.316406 18.578125 -24.609375 C 19.347656 -23.179688 19.992188 -21.800781 20.515625 -20.46875 C 21.035156 -19.144531 21.296875 -17.898438 21.296875 -16.734375 C 21.296875 -14.460938 20.972656 -12.578125 20.328125 -11.078125 C 19.679688 -9.585938 18.578125 -8.84375 17.015625 -8.84375 C 15.910156 -8.84375 15.035156 -9.195312 14.390625 -9.90625 C 13.742188 -10.625 13.257812 -11.566406 12.9375 -12.734375 C 12.539062 -13.835938 12.296875 -15.117188 12.203125 -16.578125 C 12.109375 -18.035156 12.0625 -19.507812 12.0625 -21 L 1.75 -20.03125 C 1.75 -17.375 1.925781 -14.796875 2.28125 -12.296875 C 2.632812 -9.804688 3.332031 -7.585938 4.375 -5.640625 C 5.476562 -3.691406 7.019531 -2.132812 9 -0.96875 C 10.976562 0.195312 13.648438 0.78125 17.015625 0.78125 C 19.867188 0.78125 22.234375 0.28125 24.109375 -0.71875 C 25.992188 -1.726562 27.488281 -3.046875 28.59375 -4.671875 C 29.695312 -6.359375 30.472656 -8.269531 30.921875 -10.40625 C 31.378906 -12.539062 31.609375 -14.8125 31.609375 -17.21875 C 31.609375 -19.15625 31.316406 -21.046875 30.734375 -22.890625 C 30.148438 -24.742188 29.40625 -26.578125 28.5 -28.390625 C 27.582031 -30.210938 26.539062 -32.03125 25.375 -33.84375 C 24.207031 -35.65625 23.007812 -37.46875 21.78125 -39.28125 C 20.75 -40.78125 19.742188 -42.242188 18.765625 -43.671875 C 17.796875 -45.097656 16.921875 -46.488281 16.140625 -47.84375 C 15.359375 -49.207031 14.722656 -50.519531 14.234375 -51.78125 C 13.753906 -53.050781 13.515625 -54.300781 13.515625 -55.53125 C 13.515625 -57.601562 13.773438 -59.285156 14.296875 -60.578125 C 14.816406 -61.878906 15.753906 -62.5625 17.109375 -62.625 C 17.953125 -62.625 18.648438 -62.316406 19.203125 -61.703125 C 19.753906 -61.085938 20.191406 -60.296875 20.515625 -59.328125 C 20.835938 -58.285156 21.046875 -57.148438 21.140625 -55.921875 C 21.242188 -54.691406 21.296875 -53.492188 21.296875 -52.328125 Z M 21.296875 -52.328125 "/></g></g></g><g fill="#000000" fill-opacity="1"><g transform="translate(36.871559, 91.481172)"><g><path d="M 31.21875 -14.6875 L 31.21875 -56.796875 C 31.082031 -59.710938 30.5 -62.273438 29.46875 -64.484375 C 29.007812 -65.453125 28.441406 -66.40625 27.765625 -67.34375 C 27.085938 -68.28125 26.257812 -69.109375 25.28125 -69.828125 C 24.3125 -70.535156 23.160156 -71.113281 21.828125 -71.5625 C 20.503906 -72.019531 18.96875 -72.25 17.21875 -72.25 C 15.46875 -72.25 13.910156 -72.019531 12.546875 -71.5625 C 11.179688 -71.113281 10.015625 -70.535156 9.046875 -69.828125 C 8.066406 -69.109375 7.253906 -68.28125 6.609375 -67.34375 C 5.960938 -66.40625 5.410156 -65.453125 4.953125 -64.484375 C 3.921875 -62.273438 3.335938 -59.710938 3.203125 -56.796875 L 3.203125 -14.6875 C 3.335938 -11.707031 3.921875 -9.113281 4.953125 -6.90625 C 5.410156 -5.9375 5.960938 -4.992188 6.609375 -4.078125 C 7.253906 -3.171875 8.066406 -2.363281 9.046875 -1.65625 C 11.054688 -0.03125 13.78125 0.78125 17.21875 0.78125 C 20.582031 0.78125 23.269531 -0.03125 25.28125 -1.65625 C 26.257812 -2.363281 27.085938 -3.171875 27.765625 -4.078125 C 28.441406 -4.992188 29.007812 -5.9375 29.46875 -6.90625 C 30.5 -9.113281 31.082031 -11.707031 31.21875 -14.6875 Z M 20.71875 -56.796875 L 20.71875 -14.6875 C 20.71875 -13.519531 20.585938 -12.644531 20.328125 -12.0625 C 20.128906 -11.34375 19.785156 -10.722656 19.296875 -10.203125 C 18.816406 -9.691406 18.125 -9.4375 17.21875 -9.4375 C 16.375 -9.4375 15.691406 -9.695312 15.171875 -10.21875 C 14.203125 -11.3125 13.71875 -12.800781 13.71875 -14.6875 L 13.71875 -56.796875 C 13.71875 -57.828125 13.84375 -58.703125 14.09375 -59.421875 C 14.289062 -60.066406 14.632812 -60.664062 15.125 -61.21875 C 15.613281 -61.769531 16.3125 -62.046875 17.21875 -62.046875 C 18.125 -62.046875 18.835938 -61.785156 19.359375 -61.265625 C 20.265625 -60.160156 20.71875 -58.671875 20.71875 -56.796875 Z M 20.71875 -56.796875 "/></g></g></g><g fill="#000000" fill-opacity="1"><g transform="translate(65.265257, 91.481172)"><g><path d="M 14.96875 -37.25 L 25.1875 0 L 34.53125 0 L 34.53125 -71.484375 L 24.890625 -71.484375 L 24.890625 -30.921875 L 24.3125 -30.921875 L 23.4375 -34.234375 L 13.21875 -71.484375 L 3.890625 -71.484375 L 3.890625 0 L 13.515625 0 L 13.515625 -40.546875 L 14.09375 -40.546875 Z M 14.96875 -37.25 "/></g></g></g><g fill="#000000" fill-opacity="1"><g transform="translate(97.653544, 91.481172)"><g/></g></g><g fill="#000000" fill-opacity="1"><g transform="translate(106.599021, 91.481172)"><g/></g></g><g fill="#000000" fill-opacity="1"><g transform="translate(115.544499, 91.481172)"><g/></g></g><g fill="#000000" fill-opacity="1"><g transform="translate(124.489977, 91.481172)"><g/></g></g><g fill="#000000" fill-opacity="1"><g transform="translate(133.435454, 91.481172)"><g/></g></g><g fill="#000000" fill-opacity="1"><g transform="translate(142.380932, 91.481172)"><g/></g></g><g fill="#000000" fill-opacity="1"><g transform="translate(151.32641, 91.481172)"><g/></g></g><g fill="#000000" fill-opacity="1"><g transform="translate(160.271887, 91.481172)"><g/></g></g><g fill="#000000" fill-opacity="1"><g transform="translate(169.225447, 91.481172)"><g><path d="M 3.890625 0 L 12.15625 0 C 17.019531 0 20.84375 -0.550781 23.625 -1.65625 C 26.414062 -2.757812 28.523438 -4.671875 29.953125 -7.390625 C 31.316406 -10.109375 32.175781 -13.753906 32.53125 -18.328125 C 32.882812 -22.898438 33.0625 -28.6875 33.0625 -35.6875 C 33.0625 -42.6875 32.882812 -48.488281 32.53125 -53.09375 C 32.175781 -57.695312 31.316406 -61.363281 29.953125 -64.09375 C 28.523438 -66.8125 26.414062 -68.722656 23.625 -69.828125 C 20.84375 -70.929688 17.019531 -71.484375 12.15625 -71.484375 L 3.890625 -71.484375 Z M 14.390625 -10.5 L 14.390625 -60.96875 C 16.203125 -60.96875 17.644531 -60.757812 18.71875 -60.34375 C 19.789062 -59.925781 20.585938 -58.875 21.109375 -57.1875 C 21.367188 -56.34375 21.578125 -55.285156 21.734375 -54.015625 C 21.898438 -52.753906 22.015625 -51.28125 22.078125 -49.59375 C 22.140625 -47.90625 22.171875 -45.910156 22.171875 -43.609375 C 22.171875 -41.316406 22.171875 -38.707031 22.171875 -35.78125 C 22.171875 -32.863281 22.171875 -30.253906 22.171875 -27.953125 C 22.171875 -25.648438 22.140625 -23.660156 22.078125 -21.984375 C 22.015625 -20.296875 21.898438 -18.816406 21.734375 -17.546875 C 21.578125 -16.285156 21.367188 -15.234375 21.109375 -14.390625 C 20.585938 -12.640625 19.789062 -11.550781 18.71875 -11.125 C 17.644531 -10.707031 16.203125 -10.5 14.390625 -10.5 Z M 14.390625 -10.5 "/></g></g></g><g fill="#000000" fill-opacity="1"><g transform="translate(199.369486, 91.481172)"><g><path d="M 3.890625 -71.484375 L 3.890625 0 L 14.390625 0 L 14.390625 -71.484375 Z M 3.890625 -71.484375 "/></g></g></g><g fill="#000000" fill-opacity="1"><g transform="translate(211.621166, 91.481172)"><g><path d="M 20.71875 -45.8125 L 31.21875 -45.8125 L 31.21875 -56.796875 C 31.082031 -59.710938 30.5 -62.273438 29.46875 -64.484375 C 29.007812 -65.453125 28.441406 -66.40625 27.765625 -67.34375 C 27.085938 -68.28125 26.257812 -69.109375 25.28125 -69.828125 C 24.3125 -70.535156 23.160156 -71.113281 21.828125 -71.5625 C 20.503906 -72.019531 18.96875 -72.25 17.21875 -72.25 C 15.46875 -72.25 13.910156 -72.019531 12.546875 -71.5625 C 11.179688 -71.113281 10.015625 -70.535156 9.046875 -69.828125 C 8.066406 -69.109375 7.253906 -68.28125 6.609375 -67.34375 C 5.960938 -66.40625 5.410156 -65.453125 4.953125 -64.484375 C 3.921875 -62.273438 3.335938 -59.710938 3.203125 -56.796875 L 3.203125 -14.6875 C 3.078125 -11.769531 3.46875 -9.175781 4.375 -6.90625 C 4.757812 -5.9375 5.257812 -4.992188 5.875 -4.078125 C 6.5 -3.171875 7.234375 -2.363281 8.078125 -1.65625 C 8.984375 -0.875 10.035156 -0.273438 11.234375 0.140625 C 12.429688 0.566406 13.875 0.78125 15.5625 0.78125 C 17.25 0.78125 18.785156 0.390625 20.171875 -0.390625 C 21.566406 -1.171875 22.753906 -2.175781 23.734375 -3.40625 L 25 0 L 31.21875 0 L 31.21875 -35.59375 L 16.53125 -35.59375 L 16.53125 -26.75 L 20.71875 -26.75 L 20.71875 -13.8125 C 20.71875 -12.644531 20.585938 -11.769531 20.328125 -11.1875 C 20.128906 -10.46875 19.785156 -9.847656 19.296875 -9.328125 C 18.816406 -8.816406 18.125 -8.5625 17.21875 -8.5625 C 16.375 -8.5625 15.691406 -8.820312 15.171875 -9.34375 C 14.203125 -10.4375 13.71875 -11.925781 13.71875 -13.8125 L 13.71875 -56.796875 C 13.71875 -57.828125 13.84375 -58.703125 14.09375 -59.421875 C 14.289062 -60.066406 14.632812 -60.664062 15.125 -61.21875 C 15.613281 -61.769531 16.3125 -62.046875 17.21875 -62.046875 C 18.125 -62.046875 18.835938 -61.785156 19.359375 -61.265625 C 20.265625 -60.160156 20.71875 -58.671875 20.71875 -56.796875 Z M 20.71875 -45.8125 "/></g></g></g><g fill="#000000" fill-opacity="1"><g transform="translate(240.598299, 91.481172)"><g><path d="M 3.890625 -71.484375 L 3.890625 0 L 14.390625 0 L 14.390625 -71.484375 Z M 3.890625 -71.484375 "/></g></g></g><g fill="#000000" fill-opacity="1"><g transform="translate(252.849979, 91.481172)"><g><path d="M 0.1875 -60.6875 L 10.109375 -60.6875 L 10.109375 0 L 20.609375 0 L 20.609375 -60.6875 L 30.53125 -60.6875 L 30.53125 -71.484375 L 0.1875 -71.484375 Z M 0.1875 -60.6875 "/></g></g></g><g fill="#000000" fill-opacity="1"><g transform="translate(277.548519, 91.481172)"><g><path d="M 0.96875 0 L 11.1875 0 L 13.125 -14.59375 L 23.25 -14.59375 L 25.1875 0 L 35.40625 0 L 24.609375 -71.484375 L 11.765625 -71.484375 Z M 18.765625 -48.234375 L 21.78125 -25.671875 L 14.59375 -25.671875 L 17.609375 -48.234375 L 17.890625 -50.078125 L 18.484375 -50.078125 Z M 18.765625 -48.234375 "/></g></g></g><g fill="#000000" fill-opacity="1"><g transform="translate(307.887036, 91.481172)"><g><path d="M 3.890625 -71.484375 L 3.890625 0 L 28.296875 0 L 28.296875 -9.71875 L 14.390625 -9.71875 L 14.390625 -71.484375 Z M 3.890625 -71.484375 "/></g></g></g><g fill="#000000" fill-opacity="1"><g transform="translate(330.543501, 91.481172)"><g><path d="M 3.890625 -71.484375 L 3.890625 0 L 27.90625 0 L 27.90625 -10.796875 L 14.390625 -10.796875 L 14.390625 -30.4375 L 24.125 -30.4375 L 24.125 -41.921875 L 14.390625 -41.921875 L 14.390625 -60.6875 L 27.90625 -60.6875 L 27.90625 -71.484375 Z M 3.890625 -71.484375 "/></g></g></g></g></g></svg>